<svg width="27" height="29" viewBox="0 0 27 29" fill="none" xmlns="http://www.w3.org/2000/svg">
<path d="M18.4569 2.53625C17.2406 1.22313 15.5419 0.5 13.6669 0.5C11.7819 0.5 10.0775 1.21875 8.86686 2.52375C7.64311 3.84312 7.04686 5.63625 7.18686 7.5725C7.46436 11.3925 10.3712 14.5 13.6669 14.5C16.9625 14.5 19.8644 11.3931 20.1462 7.57375C20.2881 5.655 19.6881 3.86563 18.4569 2.53625ZM24.6669 28.5H2.66686C2.3789 28.5037 2.09373 28.4433 1.83209 28.3229C1.57045 28.2026 1.33893 28.0254 1.15436 27.8044C0.748111 27.3188 0.584361 26.6556 0.705611 25.985C1.23311 23.0588 2.87936 20.6006 5.46686 18.875C7.76561 17.3431 10.6775 16.5 13.6669 16.5C16.6562 16.5 19.5681 17.3438 21.8669 18.875C24.4544 20.6 26.1006 23.0581 26.6281 25.9844C26.7494 26.655 26.5856 27.3181 26.1794 27.8037C25.9949 28.0249 25.7634 28.2022 25.5017 28.3226C25.2401 28.4431 24.9549 28.5037 24.6669 28.5Z" fill="#191919" fill-opacity="0.3"/>
</svg>
