<svg width="27" height="27" viewBox="0 0 27 27" fill="none" xmlns="http://www.w3.org/2000/svg">
<path d="M13.6668 0.166626C21.0308 0.166626 27.0002 6.13596 27.0002 13.5C27.0002 20.864 21.0308 26.8333 13.6668 26.8333C6.30283 26.8333 0.333496 20.864 0.333496 13.5C0.333496 6.13596 6.30283 0.166626 13.6668 0.166626ZM13.6668 5.49996C13.3132 5.49996 12.9741 5.64044 12.724 5.89048C12.474 6.14053 12.3335 6.47967 12.3335 6.83329V13.5C12.3336 13.8536 12.4741 14.1926 12.7242 14.4426L16.7242 18.4426C16.9756 18.6855 17.3124 18.8199 17.662 18.8169C18.0116 18.8138 18.346 18.6736 18.5933 18.4264C18.8405 18.1792 18.9807 17.8448 18.9837 17.4952C18.9868 17.1456 18.8524 16.8088 18.6095 16.5573L15.0002 12.948V6.83329C15.0002 6.47967 14.8597 6.14053 14.6096 5.89048C14.3596 5.64044 14.0205 5.49996 13.6668 5.49996Z" fill="#191919" fill-opacity="0.3"/>
</svg>
